<?xml version="1.0" encoding="UTF-8" standalone="no"?>
<svg
   width="191mm"
   height="191.99999999999994mm"
   viewBox="-95 -96.99999999999997 191 191.99999999999994"
   version="1.1"
   id="svg8"
   sodipodi:docname="Strategy Game Pieces v2.svg"
   inkscape:version="1.2 (dc2aedaf03, 2022-05-15)"
   xmlns:inkscape="http://www.inkscape.org/namespaces/inkscape"
   xmlns:sodipodi="http://sodipodi.sourceforge.net/DTD/sodipodi-0.dtd"
   xmlns="http://www.w3.org/2000/svg"
   xmlns:svg="http://www.w3.org/2000/svg">
  <defs
     id="defs12" />
  <sodipodi:namedview
     id="namedview10"
     pagecolor="#ffffff"
     bordercolor="#000000"
     borderopacity="0.25"
     inkscape:showpageshadow="2"
     inkscape:pageopacity="0.0"
     inkscape:pagecheckerboard="0"
     inkscape:deskcolor="#d1d1d1"
     inkscape:document-units="mm"
     showgrid="false"
     inkscape:zoom="0.7834338"
     inkscape:cx="349.10416"
     inkscape:cy="382.29139"
     inkscape:window-width="1920"
     inkscape:window-height="991"
     inkscape:window-x="-9"
     inkscape:window-y="-9"
     inkscape:window-maximized="1"
     inkscape:current-layer="svg8" />
  <title
     id="title2">svgOutput</title>
  <desc
     id="desc4">made with tinkercad</desc>
  <path
     d="M -21 88.99999999999999 L -29.375 88.99999999999999 L -30 88.99999999999999 L -36.25 88.99999999999999 L -37 88.99999999999999 L -40 88.99999999999999 L -42 88.99999999999999 L -49 88.99999999999999 L -50 88.99999999999999 L -50.625 88.99999999999999 L -50.75 88.99999999999999 L -59 88.99999999999999 L -59 73.74999999999999 L -59 59.374999999999986 L -59 59.249999999999986 L -59 50.999999999999986 L -50.75 50.999999999999986 L -50 50.999999999999986 L -49 50.999999999999986 L -43.75 50.999999999999986 L -42 50.999999999999986 L -40 50.999999999999986 L -37 50.999999999999986 L -30 50.999999999999986 L -29.375 50.999999999999986 L -21 50.999999999999986 L -21 71.99999999999999 L -21 88.99999999999999 M -29.375 38.99999999999999 L -30 38.99999999999999 L -37 38.99999999999999 L -40 38.99999999999999 L -42 38.99999999999999 L -43.75 38.99999999999999 L -49 38.99999999999999 L -50 38.99999999999999 L -50.75 38.99999999999999 L -59 38.99999999999999 L -59 0.9999999999999999 L -57 0.9999999999999999 L -50 0.9999999999999999 L -49 0.9999999999999999 L -40 0.9999999999999999 L -37 0.9999999999999999 L -32 0.9999999999999999 L -30 0.9999999999999999 L -21 0.9999999999999999 L -21 21.999999999999996 L -21 38.99999999999999 L -29.375 38.99999999999999 M -11.296499252319336 -42.00866317749023 L -11 -42.32031631469726 L -10.375 -42.9772605895996 L -10.343816757202148 -43.00799942016601 L -10.329216957092285 -43.02239227294921 L -10.28056526184082 -43.064521789550774 L -10.239999771118164 -43.096015930175774 L -10.1633939743042 -43.15548706054687 L -10 -43.275283813476555 L -9.355999946594238 -43.74744796752929 L -9.151965141296387 -43.86745071411132 L -8.939167976379395 -43.98344421386718 L -8.357000350952148 -44.26200103759765 L -8.192000389099121 -44.33637619018554 L -8 -44.422920227050774 L -7.828999996185303 -44.49999999999999 L -7.284999847412109 -44.695999145507805 L -6.728000164031982 -44.84899902343749 L -6.159999847412109 -44.95999908447265 L -5.815522193908691 -44.99999999999999 L -4.184477806091309 -44.99999999999999 L -4.0960001945495605 -44.989727020263665 L -3.8399999141693115 -44.95999908447265 L -3.2720000743865967 -44.84899902343749 L -2.999000072479248 -44.77400970458984 L -2.7149999141693115 -44.695999145507805 L -2.1710000038146973 -44.49999999999999 L -1.6430000066757202 -44.26200103759765 L -1.060832142829895 -43.98344421386718 L -0.9980000257492065 -43.9491958618164 L -0.8480349779129028 -43.86745071411132 L -0.6439999938011169 -43.74744796752929 L -0.33963778614997864 -43.52441024780273 L 0 -43.27532196044921 L 0.1633942574262619 -43.15548706054687 L 0.2805652320384979 -43.064521789550774 L 0.32921740412712097 -43.02239227294921 L 0.3438166677951813 -43.00799942016601 L 0.375 -42.9772605895996 L 1 -42.32031631469726 L 1.2964990139007568 -42.00866317749023 L 1.3010138273239136 -42.003582000732415 L 1.3051834106445312 -41.99822616577148 L 1.3090078830718994 -41.99259185791015 L 1.7563475370407104 -41.307937622070305 L 1.8904995918273926 -41.07987976074218 L 1.952062726020813 -40.95999908447265 L 1.9980000257492065 -40.87054824829101 L 2.159979820251465 -40.555130004882805 L 2.296199321746826 -40.283306121826165 L 2.438204050064087 -39.96903991699218 L 2.5866122245788574 -39.59679412841796 L 2.7247331142425537 -39.18462753295898 L 2.795832872390747 -38.92827606201171 L 2.917402744293213 -38.40658950805663 L 2.934819459915161 -38.30050659179687 L 3 -37.81719970703124 L 3 -36.18280029296874 L 2.9750771522521973 -35.998001098632805 L 2.934819459915161 -35.69949340820312 L 2.917402744293213 -35.59341049194335 L 2.795832872390747 -35.071723937988274 L 2.7247331142425537 -34.81537246704101 L 2.5866122245788574 -34.403205871582024 L 2.438204050064087 -34.030960083007805 L 2.296199321746826 -33.71669387817382 L 2.159979820251465 -33.44486999511718 L 1.9980000257492065 -33.12945175170898 L 1.8904995918273926 -32.920120239257805 L 1.801016926765442 -32.76800155639648 L 1.7563475370407104 -32.69206237792968 L 1.3090078830718994 -32.00740814208984 L 1.3051834106445312 -32.00177383422851 L 1.3010138273239136 -31.996416091918938 L 1.2967981100082397 -31.991672515869134 L 1.2964990139007568 -31.991334915161126 L 1 -31.679681777954094 L 0.375 -31.022739410400384 L 0.3717704713344574 -31.01955604553222 L 0.32921740412712097 -30.977609634399407 L 0.2805652320384979 -30.93547821044921 L 0.16514980792999268 -30.845874786376946 L 0.1633942574262619 -30.844511032104485 L 0 -30.72471618652343 L -0.6439999938011169 -30.252552032470696 L -0.6454420685768127 -30.251705169677727 L -0.8480349779129028 -30.132549285888665 L -1.060832142829895 -30.016553878784173 L -1.6430000066757202 -29.73800086975097 L -2.1710000038146973 -29.499999999999993 L -2.7149999141693115 -29.30400085449218 L -3.2720000743865967 -29.15099906921386 L -3.8399999141693115 -29.040000915527337 L -4.0960001945495605 -29.01027297973632 L -4.184477806091309 -28.999999999999993 L -5.815522193908691 -28.999999999999993 L -6.159999847412109 -29.040000915527337 L -6.728000164031982 -29.15099906921386 L -7.284999847412109 -29.30400085449218 L -7.828999996185303 -29.499999999999993 L -8 -29.57707977294921 L -8.192000389099121 -29.66362571716308 L -8.357000350952148 -29.73800086975097 L -8.939167976379395 -30.016553878784173 L -9.151965141296387 -30.132549285888665 L -9.355999946594238 -30.252552032470696 L -9.660362243652344 -30.47558975219726 L -10 -30.724679946899407 L -10.1633939743042 -30.844511032104485 L -10.239999771118164 -30.903985977172844 L -10.28056526184082 -30.93547821044921 L -10.329216957092285 -30.977609634399407 L -10.371770858764648 -31.01955604553222 L -10.375 -31.022739410400384 L -11 -31.679681777954094 L -11.296499252319336 -31.991334915161126 L -11.296797752380371 -31.991672515869134 L -11.301013946533203 -31.996416091918938 L -11.305183410644531 -32.00177383422851 L -11.30900764465332 -32.00740814208984 L -11.75634765625 -32.69206237792968 L -11.801016807556152 -32.76800155639648 L -11.890499114990234 -32.920120239257805 L -12.159979820251465 -33.44486999511718 L -12.186605453491211 -33.498001098632805 L -12.296199798583984 -33.71669387817382 L -12.438203811645508 -34.030960083007805 L -12.586612701416016 -34.403205871582024 L -12.724733352661133 -34.81537246704101 L -12.795832633972168 -35.071723937988274 L -12.917403221130371 -35.59341049194335 L -12.934819221496582 -35.69949340820312 L -13 -36.18280029296874 L -13 -37.81719970703124 L -12.934819221496582 -38.30050659179687 L -12.917403221130371 -38.40658950805663 L -12.795832633972168 -38.92827606201171 L -12.724733352661133 -39.18462753295898 L -12.586612701416016 -39.59679412841796 L -12.438203811645508 -39.96903991699218 L -12.296199798583984 -40.283306121826165 L -12.159979820251465 -40.555130004882805 L -11.952062606811523 -40.95999908447265 L -11.890499114990234 -41.07987976074218 L -11.75634765625 -41.307937622070305 L -11.30900764465332 -41.99259185791015 L -11.305183410644531 -41.99822616577148 L -11.301013946533203 -42.003582000732415 L -11.296499252319336 -42.00866317749023 M -21 -5.999999999999998 L -30 -5.999999999999998 L -32 -5.999999999999998 L -37 -5.999999999999998 L -40 -5.999999999999998 L -49 -5.999999999999998 L -50 -5.999999999999998 L -57 -5.999999999999998 L -59 -5.999999999999998 L -59 -43.99999999999999 L -57 -43.99999999999999 L -50 -43.99999999999999 L -49 -43.99999999999999 L -43 -43.99999999999999 L -41 -43.99999999999999 L -40 -43.99999999999999 L -39 -43.99999999999999 L -38 -43.99999999999999 L -37 -43.99999999999999 L -32 -43.99999999999999 L -30 -43.99999999999999 L -21 -43.99999999999999 L -21 -5.999999999999998 M -92 -86.99999999999999 L -87.14199829101562 -86.99999999999999 L -87.00299835205078 -86.99999999999999 L -87.00299835205078 -84.9980010986328 L -87 -84.9980010986328 L -81.83899688720703 -84.9980010986328 L -67 -84.9980010986328 L -66.99800109863281 -84.9980010986328 L -66.99800109863281 -86.99999999999999 L -64.00299835205078 -86.99999999999999 L -64.00299835205078 -85.9980010986328 L -64 -85.9980010986328 L -59 -85.9980010986328 L -57 -85.9980010986328 L -56.99800109863281 -85.9980010986328 L -56.99800109863281 -86.99999999999999 L -54 -86.99999999999999 L -54 -66.49999999999999 L -54 -57.999999999999986 L -54 -48.999999999999986 L -56.99800109863281 -48.999999999999986 L -56.99800109863281 -50.00299835205077 L -57 -50.00299835205077 L -59 -50.00299835205077 L -64 -50.00299835205077 L -64.00299835205078 -50.00299835205077 L -64.00299835205078 -48.999999999999986 L -66.99800109863281 -48.999999999999986 L -66.99800109863281 -51.00299835205077 L -67 -51.00299835205077 L -81.83899688720703 -51.00299835205077 L -87 -51.00299835205077 L -87.00299835205078 -51.00299835205077 L -87.00299835205078 -48.999999999999986 L -87.14199829101562 -48.999999999999986 L -88 -48.999999999999986 L -90 -48.999999999999986 L -92 -48.999999999999986 L -92 -86.99999999999999 M -87 -50.999999999999986 L -81.83899688720703 -50.999999999999986 L -67 -50.999999999999986 L -67 -50.499999999999986 L -70 -50.499999999999986 L -72 -50.499999999999986 L -81.83899688720703 -50.499999999999986 L -87 -50.499999999999986 L -87 -50.999999999999986 M -87 -85.49999999999999 L -81.83899688720703 -85.49999999999999 L -67 -85.49999999999999 L -67 -84.99999999999999 L -81.83899688720703 -84.99999999999999 L -87 -84.99999999999999 L -87 -85.49999999999999 M -70 93.99999999999999 L -81.83899688720703 93.99999999999999 L -87 93.99999999999999 L -87.14199829101562 93.99999999999999 L -88 93.99999999999999 L -90 93.99999999999999 L -92 91.99999999999999 L -94 89.99999999999999 L -92 87.99999999999999 L -90 85.99999999999999 L -90 73.99999999999999 L -92 71.99999999999999 L -94 69.99999999999999 L -92 67.99999999999999 L -90 65.99999999999999 L -90 53.999999999999986 L -92 51.999999999999986 L -94 49.999999999999986 L -92 47.999999999999986 L -90 45.99999999999999 L -90 33.99999999999999 L -92 31.999999999999993 L -94 29.999999999999993 L -92 27.999999999999993 L -90 25.999999999999993 L -90 13.999999999999996 L -92 11.999999999999996 L -94 9.999999999999998 L -92 7.999999999999998 L -90 5.999999999999998 L -90 -5.999999999999998 L -92 -7.999999999999998 L -94 -9.999999999999998 L -92 -11.999999999999996 L -90 -13.999999999999996 L -90 -25.999999999999993 L -92 -27.999999999999993 L -94 -29.999999999999993 L -92 -31.999999999999993 L -90 -33.99999999999999 L -88 -33.99999999999999 L -87.14199829101562 -33.99999999999999 L -87 -33.99999999999999 L -81.83899688720703 -33.99999999999999 L -72 -33.99999999999999 L -70 -33.99999999999999 L -70 -11.999999999999996 L -70 7.999999999999998 L -70 27.999999999999993 L -70 47.999999999999986 L -70 67.99999999999999 L -70 87.99999999999999 L -70 93.99999999999999 M -41 -93.99999999999999 L -40 -93.99999999999999 L -38 -93.99999999999999 L -37 -93.99999999999999 L -32 -93.99999999999999 L -31 -93.99999999999999 L -31 -95.99999999999997 L -30 -95.99999999999997 L -27 -95.99999999999997 L -27 -93.99999999999999 L -21 -93.99999999999999 L -13 -93.99999999999999 L -11 -93.99999999999999 L -11 -95.99999999999997 L -10 -95.99999999999997 L -8 -95.99999999999997 L -7 -95.99999999999997 L -7 -93.99999999999999 L 0 -93.99999999999999 L 1 -93.99999999999999 L 3 -93.99999999999999 L 3 -91.99999999999999 L 3 -83.99999999999999 L 3.997999906539917 -83.99999999999999 L 5 -83.99999999999999 L 5 -79.99999999999999 L 3.997999906539917 -79.99999999999999 L 3 -79.99999999999999 L 3 -63.999999999999986 L 3.997999906539917 -63.999999999999986 L 5 -63.999999999999986 L 5 -59.999999999999986 L 3.997999906539917 -59.999999999999986 L 3 -59.999999999999986 L 3 -51.999999999999986 L 3 -49.999999999999986 L 1 -49.999999999999986 L 0 -49.999999999999986 L -7 -49.999999999999986 L -7 -47.999999999999986 L -8 -47.999999999999986 L -10 -47.999999999999986 L -11 -47.999999999999986 L -11 -49.999999999999986 L -13 -49.999999999999986 L -21 -49.999999999999986 L -27 -49.999999999999986 L -27 -47.999999999999986 L -30 -47.999999999999986 L -31 -47.999999999999986 L -31 -49.999999999999986 L -32 -49.999999999999986 L -37 -49.999999999999986 L -38 -49.999999999999986 L -39 -49.999999999999986 L -40 -49.999999999999986 L -41 -49.999999999999986 L -41 -59.999999999999986 L -43 -59.999999999999986 L -43 -63.999999999999986 L -41 -63.999999999999986 L -41 -79.99999999999999 L -43 -79.99999999999999 L -43 -83.99999999999999 L -41 -83.99999999999999 L -41 -91.99999999999999 L -41 -93.99999999999999 M -38 -90.99999999999999 L -37 -90.99999999999999 L -32 -90.99999999999999 L -30 -90.99999999999999 L -21 -90.99999999999999 L -13 -90.99999999999999 L -11 -90.99999999999999 L -10 -90.99999999999999 L -8 -90.99999999999999 L 0 -90.99999999999999 L 0 -52.999999999999986 L -8 -52.999999999999986 L -10 -52.999999999999986 L -11 -52.999999999999986 L -13 -52.999999999999986 L -21 -52.999999999999986 L -30 -52.999999999999986 L -32 -52.999999999999986 L -37 -52.999999999999986 L -38 -52.999999999999986 L -38 -90.99999999999999 M -10.706000328063965 -20.85400009155273 L -10 -22.24031257629394 L -9.854000091552734 -22.52700042724609 L -8.527000427246094 -23.85400009155273 L -8 -24.122383117675774 L -6.854000091552734 -24.70599937438964 L -5 -24.999999999999993 L -3.1459999084472656 -24.70599937438964 L -1.4730000495910645 -23.85400009155273 L -0.1459999978542328 -22.52700042724609 L 0 -22.24031257629394 L 0.7059999704360962 -20.85400009155273 L 1 -18.999999999999996 L 0.7059999704360962 -17.145999908447262 L 0.6316473484039307 -16.999999999999996 L 0.31794023513793945 -16.38400077819824 L 0.12238254398107529 -15.999999999999996 L -0.1459999978542328 -15.472999572753903 L -1.4730000495910645 -14.145999908447262 L -3.1459999084472656 -13.293999671936032 L -5 -12.999999999999996 L -6.854000091552734 -13.293999671936032 L -8 -13.877617835998532 L -8.527000427246094 -14.145999908447262 L -9.854000091552734 -15.472999572753903 L -10 -15.759687423706051 L -10.317939758300781 -16.38400077819824 L -10.706000328063965 -17.145999908447262 L -11 -18.999999999999996 L -10.706000328063965 -20.85400009155273 M -9 0.9999999999999999 L -8 0.9999999999999999 L -7.002999782562256 0.9999999999999999 L -4 0.9999999999999999 L 11 0.9999999999999999 L 15 0.9999999999999999 L 15.00100040435791 0.9999999999999999 L 16 0.9999999999999999 L 19 0.9999999999999999 L 26 0.9999999999999999 L 27.003000259399414 0.9999999999999999 L 29 0.9999999999999999 L 29 38.99999999999999 L 27.003000259399414 38.99999999999999 L 26 38.99999999999999 L 19 38.99999999999999 L 16 38.99999999999999 L 15.00100040435791 38.99999999999999 L 15 38.99999999999999 L 11 38.99999999999999 L -4 38.99999999999999 L -7.002999782562256 38.99999999999999 L -8 38.99999999999999 L -9 38.99999999999999 L -9 0.9999999999999999 M -9 50.999999999999986 L -8 50.999999999999986 L -4.002999782562256 50.999999999999986 L -4.002999782562256 53.00299835205077 L -4 53.00299835205077 L 16 53.00299835205077 L 16.003000259399414 53.00299835205077 L 16.003000259399414 50.999999999999986 L 18.99799919128418 50.999999999999986 L 18.99799919128418 52.00299835205077 L 19 52.00299835205077 L 26 52.00299835205077 L 26.003000259399414 52.00299835205077 L 26.003000259399414 50.999999999999986 L 29 50.999999999999986 L 29 70.99999999999999 L 29 88.99999999999999 L 26.003000259399414 88.99999999999999 L 26.003000259399414 87.9980010986328 L 26 87.9980010986328 L 19 87.9980010986328 L 18.99799919128418 87.9980010986328 L 18.99799919128418 88.99999999999999 L 16.003000259399414 88.99999999999999 L 16.003000259399414 86.9980010986328 L 16 86.9980010986328 L -4 86.9980010986328 L -4.002999782562256 86.9980010986328 L -4.002999782562256 88.99999999999999 L -8 88.99999999999999 L -9 88.99999999999999 L -9 50.999999999999986 M -8.151050567626953 -33.144451141357415 L -8.001999855041504 -33.13153076171874 L -8.001325607299805 -33.13158798217773 L -8.000967979431152 -33.13161849975585 L -8 -33.131702423095696 L -7.850924015045166 -33.144538879394524 L -7.849917888641357 -33.14480972290038 L -7.704841613769531 -33.18356323242187 L -7.70390510559082 -33.18399810791015 L -7.702416896820068 -33.184700012207024 L -7.679999828338623 -33.19524765014648 L -7.568765640258789 -33.24759674072265 L -7.567911624908447 -33.24818801879882 L -7.522045612335205 -33.27999877929687 L -7.444696426391602 -33.33364486694335 L -7.443968296051025 -33.33438110351562 L -7.337645530700684 -33.44070434570312 L -7.337050437927246 -33.44155120849609 L -7.250601291656494 -33.564765930175774 L -7.250571250915527 -33.56483078002929 L -7.250158309936523 -33.56570816040038 L -7.187556743621826 -33.70184326171874 L -7.187291145324707 -33.70284271240234 L -7.168000221252441 -33.77325439453124 L -7.1628642082214355 -33.791999816894524 L -7.1475443840026855 -33.84791946411132 L -7.14745569229126 -33.84894943237304 L -7.134538173675537 -33.998001098632805 L -7.13459587097168 -33.998672485351555 L -7.134626388549805 -33.999031066894524 L -7.1475443840026855 -34.14907455444335 L -7.147809982299805 -34.15008163452148 L -7.168000221252441 -34.22377395629882 L -7.187556743621826 -34.29515838623046 L -7.188000202178955 -34.296096801757805 L -7.191661834716797 -34.30400085449218 L -7.250601291656494 -34.43123245239257 L -7.251196384429932 -34.43208694458007 L -7.254648685455322 -34.43700790405273 L -7.337645530700684 -34.555305480957024 L -7.444696426391602 -34.66235351562499 L -7.445550441741943 -34.66294860839843 L -7.568765640258789 -34.749397277832024 L -7.569702625274658 -34.7498435974121 L -7.571615695953369 -34.75072860717773 L -7.679999828338623 -34.80093383789062 L -7.704841613769531 -34.81244277954101 L -7.705848217010498 -34.8127098083496 L -7.717860698699951 -34.81600189208984 L -7.850924015045166 -34.85245513916015 L -7.851955890655518 -34.85254287719726 L -8 -34.86529159545898 L -8.001999855041504 -34.86546325683593 L -8.002177238464355 -34.86544799804687 L -8.003031730651855 -34.865371704101555 L -8.152082443237305 -34.85245513916015 L -8.153081893920898 -34.852188110351555 L -8.192000389099121 -34.84152603149413 L -8.285175323486328 -34.81600189208984 L -8.298158645629883 -34.81244277954101 L -8.299100875854492 -34.812000274658196 L -8.435234069824219 -34.749397277832024 L -8.436081886291504 -34.74880218505859 L -8.44107437133789 -34.74530029296874 L -8.559297561645508 -34.66235351562499 L -8.56003189086914 -34.66162490844726 L -8.666354179382324 -34.555305480957024 L -8.666949272155762 -34.554450988769524 L -8.704000473022461 -34.501026153564446 L -8.752405166625977 -34.43123245239257 L -8.75284194946289 -34.43029785156249 L -8.812275886535645 -34.30400085449218 L -8.816436767578125 -34.29515838623046 L -8.8167085647583 -34.29415130615234 L -8.855462074279785 -34.14907455444335 L -8.855550765991211 -34.14804458618163 L -8.868468284606934 -33.998001098632805 L -8.868453025817871 -33.99782180786132 L -8.868379592895508 -33.99696731567382 L -8.855462074279785 -33.84791946411132 L -8.85519027709961 -33.84691619873046 L -8.840519905090332 -33.791999816894524 L -8.816436767578125 -33.70184326171874 L -8.815999984741211 -33.70089721679687 L -8.81468391418457 -33.69808197021484 L -8.752405166625977 -33.564765930175774 L -8.751810073852539 -33.563919067382805 L -8.706092834472656 -33.498001098632805 L -8.704000473022461 -33.494983673095696 L -8.666354179382324 -33.44070434570312 L -8.559297561645508 -33.33364486694335 L -8.558449745178223 -33.333049774169915 L -8.48195743560791 -33.27999877929687 L -8.435234069824219 -33.24759674072265 L -8.434290885925293 -33.2471580505371 L -8.298158645629883 -33.18356323242187 L -8.297158241271973 -33.18329238891601 L -8.295308113098145 -33.18279647827148 L -8.192000389099121 -33.155200958251946 L -8.152082443237305 -33.144538879394524 L -8.151050567626953 -33.144451141357415 M 95 87.99999999999999 L 76.40399932861328 87.99999999999999 L 75 87.99999999999999 L 75 70.99999999999999 L 75 65.99999999999999 L 75 50.999999999999986 L 75 43.99999999999999 L 75 21.999999999999996 L 75 1.1102230246251565e-16 L 76.40399932861328 1.1102230246251565e-16 L 95 1.1102230246251565e-16 L 95 21.00300025939941 L 95 21.999999999999996 L 95 43.002998352050774 L 95 43.99999999999999 L 95 50.999999999999986 L 95 65.00299835205077 L 95 65.99999999999999 L 95 70.99999999999999 L 95 87.00299835205077 L 95 87.99999999999999 M 71 50.999999999999986 L 71 70.99999999999999 L 71 88.99999999999999 L 68 88.99999999999999 L 37 88.99999999999999 L 33 88.99999999999999 L 33 70.99999999999999 L 33 50.999999999999986 L 37 50.999999999999986 L 37.49800109863281 50.999999999999986 L 43 50.999999999999986 L 45.00299835205078 50.999999999999986 L 48.249000549316406 50.999999999999986 L 48.49800109863281 50.999999999999986 L 55.50299835205078 50.999999999999986 L 55.750999450683594 50.999999999999986 L 58.599998474121094 50.999999999999986 L 59.49800109863281 50.999999999999986 L 67.00299835205078 50.999999999999986 L 68 50.999999999999986 L 69 50.999999999999986 L 71 50.999999999999986 M 35.12200164794922 -5.09000015258789 L 37 -6.047187328338621 L 37.90999984741211 -6.511000156402586 L 38.999000549316406 -6.683336734771727 L 41 -6.999999999999998 L 43 -6.68349504470825 L 44.09000015258789 -6.511000156402586 L 46.87799835205078 -5.09000015258789 L 49.09000015258789 -2.8780000209808345 L 50.51100158691406 -0.09000000357627856 L 50.52524185180664 1.1102230246251565e-16 L 50.6833381652832 0.9990000128746032 L 51 2.999999999999999 L 50.6833381652832 5.000999927520751 L 50.51100158691406 6.090000152587889 L 50.3780517578125 6.350846767425535 L 49.09000015258789 8.878000259399412 L 46.87799835205078 11.090000152587889 L 44.09000015258789 12.510999679565426 L 43.000999450683594 12.683337211608883 L 43 12.683495521545407 L 41 12.999999999999996 L 38.999000549316406 12.683337211608883 L 37.90999984741211 12.510999679565426 L 37 12.047186851501461 L 35.12200164794922 11.090000152587889 L 32.90999984741211 8.878000259399412 L 31.48900032043457 6.090000152587889 L 31.31666374206543 5.000999927520751 L 31 2.999999999999999 L 31.31666374206543 0.9990000128746032 L 31.47475814819336 1.1102230246251565e-16 L 31.48900032043457 -0.09000000357627856 L 32.90999984741211 -2.8780000209808345 L 35.12200164794922 -5.09000015258789 M 31 -10.999999999999998 L 29 -10.999999999999998 L 26 -10.999999999999998 L 19 -10.999999999999998 L 16.384000778198242 -10.999999999999998 L 16 -10.999999999999998 L 15 -10.999999999999998 L 13.067425727844238 -10.999999999999998 L 13.067425727844238 -12.28800010681152 L 13.067425727844238 -12.999999999999996 L 13.067425727844238 -15.998000144958493 L 15 -15.998000144958493 L 15.003000259399414 -15.998000144958493 L 15.003000259399414 -15.999999999999996 L 15.003000259399414 -16.38400077819824 L 15.003000259399414 -16.999999999999996 L 15.003000259399414 -20.479999542236325 L 15.003000259399414 -23.999999999999993 L 15.003000259399414 -24.003000259399407 L 15 -24.003000259399407 L 13.067425727844238 -24.003000259399407 L 13.067425727844238 -24.57600021362304 L 13.067425727844238 -27.997999191284173 L 13.067425727844238 -28.999999999999993 L 15 -28.999999999999993 L 16.384000778198242 -28.999999999999993 L 18.99799919128418 -28.999999999999993 L 32.768001556396484 -28.999999999999993 L 34 -28.999999999999993 L 40.00299835205078 -28.999999999999993 L 43.00199890136719 -28.999999999999993 L 44.99800109863281 -28.999999999999993 L 45 -28.999999999999993 L 46.93257522583008 -28.999999999999993 L 46.93257522583008 -27.997999191284173 L 46.93257522583008 -24.003000259399407 L 44.99800109863281 -24.003000259399407 L 44.99800109863281 -23.999999999999993 L 44.99800109863281 -16.999999999999996 L 44.99800109863281 -15.999999999999996 L 44.99800109863281 -15.998000144958493 L 46.93257522583008 -15.998000144958493 L 46.93257522583008 -12.999999999999996 L 46.93257522583008 -10.999999999999998 L 44.99800109863281 -10.999999999999998 L 43 -10.999999999999998 L 40.00299835205078 -10.999999999999998 L 37 -10.999999999999998 L 32.768001556396484 -10.999999999999998 L 31 -10.999999999999998 M 38.999000549316406 0.9990000128746032 L 37 0.9990000128746032 L 34.99800109863281 0.9990000128746032 L 34.99800109863281 5.000999927520751 L 37 5.000999927520751 L 38.999000549316406 5.000999927520751 L 38.999000549316406 9.003000259399412 L 43 9.003000259399412 L 43.000999450683594 9.003000259399412 L 43.000999450683594 5.000999927520751 L 47.00299835205078 5.000999927520751 L 47.00299835205078 1.158461570739746 L 47.00299835205078 0.9990000128746032 L 46.899349212646484 0.9990000128746032 L 43.000999450683594 0.9990000128746032 L 43.000999450683594 1.1102230246251565e-16 L 43.000999450683594 -3.003000020980834 L 43 -3.003000020980834 L 38.999000549316406 -3.003000020980834 L 38.999000549316406 1.1102230246251565e-16 L 38.999000549316406 0.9990000128746032 M 54.70600128173828 40.99999999999999 L 54.70600128173828 39.99999999999999 L 54.54690170288086 39.99999999999999 L 54.23786544799805 39.99999999999999 L 54 39.99999999999999 L 54 38.99999999999999 L 53.400001525878906 38.99999999999999 L 50.8026008605957 40.998001098632805 L 45.5974006652832 40.998001098632805 L 43 38.99999999999999 L 43 34.99999999999999 L 51 22.692308425903317 L 54 18.076923370361325 L 54 15.999999999999996 L 51 15.999999999999996 L 51 13.999999999999996 L 53.6363639831543 11.363636016845701 L 54 10.999999999999998 L 54 6.994997978210447 L 54.99774932861328 3.003000020980834 L 57.00225067138672 3.003000020980834 L 58 6.99100875854492 L 58 10.999999999999998 L 61 13.999999999999996 L 61 15.999999999999996 L 58 15.999999999999996 L 58 18.076923370361325 L 61 22.692308425903317 L 68 33.46154022216796 L 69 34.99999999999999 L 69 38.99999999999999 L 68 39.76922988891601 L 66.40260314941406 40.998001098632805 L 61.1973991394043 40.998001098632805 L 58.599998474121094 38.99999999999999 L 58 38.99999999999999 L 58 39.99999999999999 L 57.40784454345703 39.99999999999999 L 57.29399871826172 39.99999999999999 L 57.29399871826172 40.99999999999999 L 54.99800109863281 40.99999999999999 L 54.70600128173828 40.99999999999999 M 16 87.49999999999999 L -4 87.49999999999999 L -4 86.99999999999999 L 16 86.99999999999999 L 16 87.49999999999999 M 16 52.999999999999986 L -4 52.999999999999986 L -4 52.499999999999986 L 11 52.499999999999986 L 15 52.499999999999986 L 16 52.499999999999986 L 16 52.999999999999986 M 15 -16.38400077819824 L 15 -15.999999999999996 L 14.333333015441895 -15.999999999999996 L 14.333333015441895 -16.999999999999996 L 14.333333015441895 -23.999999999999993 L 15 -23.999999999999993 L 15 -20.479999542236325 L 15 -16.999999999999996 L 15 -16.38400077819824 M 45 -15.999999999999996 L 45 -16.999999999999996 L 45 -23.999999999999993 L 45.5 -23.999999999999993 L 45.5 -16.999999999999996 L 45.5 -15.999999999999996 L 45 -15.999999999999996 M 49 -39.99999999999999 L 45 -34.8571434020996 L 42 -30.999999999999993 L 34 -30.999999999999993 L 15 -30.999999999999993 L 11 -30.999999999999993 L 11 -37.998001098632805 L 11 -47.999999999999986 L 11 -48.999999999999986 L 15 -48.999999999999986 L 34 -48.999999999999986 L 42 -48.999999999999986 L 45 -45.14285659790038 L 49 -39.99999999999999 M 46.93257522583008 -64.00299835205077 L 45 -64.00299835205077 L 45 -61.43999862670897 L 45 -60.499999999999986 L 45 -59.499999999999986 L 45 -57.999999999999986 L 45 -57.34400177001952 L 45 -55.9980010986328 L 46.93257522583008 -55.9980010986328 L 46.93257522583008 -53.2480010986328 L 46.93257522583008 -50.999999999999986 L 45 -50.999999999999986 L 43.00199890136719 -50.999999999999986 L 34 -50.999999999999986 L 15 -50.999999999999986 L 13.067425727844238 -50.999999999999986 L 13.067425727844238 -53.2480010986328 L 13.067425727844238 -55.9980010986328 L 15 -55.9980010986328 L 15 -57.34400177001952 L 15 -61.43999862670897 L 15 -64.00299835205077 L 13.067425727844238 -64.00299835205077 L 13.067425727844238 -65.53600311279295 L 13.067425727844238 -67.9980010986328 L 13.067425727844238 -68.99999999999999 L 15 -68.99999999999999 L 34 -68.99999999999999 L 43.00199890136719 -68.99999999999999 L 45 -68.99999999999999 L 46.93257522583008 -68.99999999999999 L 46.93257522583008 -67.9980010986328 L 46.93257522583008 -65.53600311279295 L 46.93257522583008 -64.00299835205077 M 48.88888931274414 -88.99999999999999 L 48.88888931274414 -86.99999999999999 L 48.75 -86.99999999999999 L 48.75 -72.99999999999999 L 48.88888931274414 -72.99999999999999 L 48.88888931274414 -70.99999999999999 L 48.75 -70.99999999999999 L 45 -70.99999999999999 L 34 -70.99999999999999 L 15.00100040435791 -70.99999999999999 L 15 -70.99999999999999 L 13.067425727844238 -70.99999999999999 L 13.067425727844238 -73.72799682617186 L 13.067425727844238 -75.99900054931639 L 15 -75.99900054931639 L 15.00100040435791 -75.99900054931639 L 15.00100040435791 -84.00099945068358 L 15 -84.00099945068358 L 13.067425727844238 -84.00099945068358 L 13.067425727844238 -86.01599884033202 L 13.067425727844238 -88.00199890136717 L 13.067425727844238 -88.99999999999999 L 15 -88.99999999999999 L 15.00100040435791 -88.99999999999999 L 34 -88.99999999999999 L 39.999000549316406 -88.99999999999999 L 40 -88.99999999999999 L 44 -88.99999999999999 L 45 -88.99999999999999 L 48.75 -88.99999999999999 L 48.88888931274414 -88.99999999999999 M 41.93257522583008 -84.00099945068358 L 40 -84.00099945068358 L 39.999000549316406 -84.00099945068358 L 39.999000549316406 -75.99900054931639 L 40 -75.99900054931639 L 41.93257522583008 -75.99900054931639 L 41.93257522583008 -73.99999999999999 L 41.98702621459961 -73.99999999999999 L 42.08981704711914 -73.99999999999999 L 42.21624755859375 -73.99999999999999 L 42.37963104248047 -73.99999999999999 L 42.55767822265625 -73.99999999999999 L 44 -73.99999999999999 L 45 -73.99999999999999 L 45 -85.99999999999999 L 44 -85.99999999999999 L 42.55767822265625 -85.99999999999999 L 42.37963104248047 -85.99999999999999 L 42.21624755859375 -85.99999999999999 L 42.08981704711914 -85.99999999999999 L 41.98702621459961 -85.99999999999999 L 41.93257522583008 -85.99999999999999 L 41.93257522583008 -84.00099945068358 M -2.812000036239624 -39.70390319824218 L -2.749398708343506 -39.568767547607415 L -2.7488038539886475 -39.567913055419915 L -2.7453510761260986 -39.56299209594726 L -2.6623544692993164 -39.44469451904296 L -2.641658306121826 -39.423999786376946 L -2.559999942779541 -39.34234237670898 L -2.5553038120269775 -39.33764648437499 L -2.5544493198394775 -39.337051391601555 L -2.431234121322632 -39.25060272216796 L -2.430297374725342 -39.25015640258788 L -2.428384304046631 -39.24927139282226 L -2.2951581478118896 -39.18755722045898 L -2.294151782989502 -39.18729019165038 L -2.149075984954834 -39.14754486083984 L -2.1480443477630615 -39.14745712280273 L -2.0480000972747803 -39.138843536376946 L -1.9980000257492065 -39.134536743164055 L -1.9978225231170654 -39.13455200195312 L -1.996968388557434 -39.13462829589843 L -1.8479176759719849 -39.14754486083984 L -1.846917748451233 -39.14781188964843 L -1.7018418312072754 -39.18755722045898 L -1.7008987665176392 -39.18799972534179 L -1.5647658109664917 -39.25060272216796 L -1.5639177560806274 -39.2511978149414 L -1.5589253902435303 -39.25469970703124 L -1.5360000133514404 -39.27078247070312 L -1.4407025575637817 -39.33764648437499 L -1.4399683475494385 -39.33837509155273 L -1.354341745376587 -39.423999786376946 L -1.3336455821990967 -39.44469451904296 L -1.3330506086349487 -39.44554901123046 L -1.247594952583313 -39.568767547607415 L -1.247158169746399 -39.56970214843749 L -1.183563232421875 -39.704841613769524 L -1.1832911968231201 -39.70584869384765 L -1.1827627420425415 -39.70782470703124 L -1.1445379257202148 -39.85092544555663 L -1.1444493532180786 -39.85195541381835 L -1.1372137069702148 -39.9360008239746 L -1.1315315961837769 -40.00199890136718 L -1.1315468549728394 -40.002178192138665 L -1.1316202878952026 -40.003032684326165 L -1.1445379257202148 -40.152080535888665 L -1.1448100805282593 -40.153083801269524 L -1.183563232421875 -40.29815673828124 L -1.184000015258789 -40.29910278320312 L -1.1853163242340088 -40.30191802978515 L -1.247594952583313 -40.43523406982421 L -1.248189926147461 -40.43608093261718 L -1.256455421447754 -40.44800186157226 L -1.3336455821990967 -40.55929565429687 L -1.33692467212677 -40.562576293945305 L -1.4407025575637817 -40.66635513305663 L -1.441550612449646 -40.66695022583007 L -1.5360000133514404 -40.73245620727538 L -1.5647658109664917 -40.75240325927734 L -1.565708875656128 -40.75284194946288 L -1.7018418312072754 -40.81643676757812 L -1.7028417587280273 -40.81670761108398 L -1.704692006111145 -40.81720352172851 L -1.8479176759719849 -40.85546112060546 L -1.8489493131637573 -40.85554885864257 L -1.9980000257492065 -40.86846923828124 L -1.9986742734909058 -40.86841201782226 L -1.999031662940979 -40.86838150024413 L -2.0480000972747803 -40.86416244506835 L -2.149075984954834 -40.85546112060546 L -2.1500823497772217 -40.8551902770996 L -2.2951581478118896 -40.81643676757812 L -2.2960948944091797 -40.81600189208984 L -2.2975828647613525 -40.81529998779296 L -2.431234121322632 -40.75240325927734 L -2.432088613510132 -40.751811981201165 L -2.5553038120269775 -40.66635513305663 L -2.5560317039489746 -40.66561889648437 L -2.559999942779541 -40.66165161132812 L -2.6623544692993164 -40.55929565429687 L -2.662949323654175 -40.5584487915039 L -2.7404420375823975 -40.44800186157226 L -2.749398708343506 -40.43523406982421 L -2.7498416900634766 -40.4342918395996 L -2.8124430179595947 -40.29815673828124 L -2.812708854675293 -40.29715728759765 L -2.8524556159973145 -40.152080535888665 L -2.8525443077087402 -40.151050567626946 L -2.865462064743042 -40.00199890136718 L -2.8654041290283203 -40.00132751464843 L -2.865373373031616 -40.00096893310546 L -2.8597800731658936 -39.9360008239746 L -2.8524556159973145 -39.85092544555663 L -2.852189779281616 -39.84991836547851 L -2.8124430179595947 -39.704841613769524 L -2.812000036239624 -39.70390319824218 M -30 -91.99999999999999 L -31 -91.99999999999999 L -32 -91.99999999999999 L -37 -91.99999999999999 L -38 -91.99999999999999 L -39 -91.99999999999999 L -39 -83.99999999999999 L -39 -79.99999999999999 L -39 -63.999999999999986 L -39 -59.999999999999986 L -39 -51.999999999999986 L -38 -51.999999999999986 L -37 -51.999999999999986 L -32 -51.999999999999986 L -31 -51.999999999999986 L -30 -51.999999999999986 L -27 -51.999999999999986 L -21 -51.999999999999986 L -13 -51.999999999999986 L -11 -51.999999999999986 L -10 -51.999999999999986 L -8 -51.999999999999986 L -7 -51.999999999999986 L 0 -51.999999999999986 L 1 -51.999999999999986 L 1 -59.999999999999986 L 1 -63.999999999999986 L 1 -79.99999999999999 L 1 -83.99999999999999 L 1 -91.99999999999999 L 0 -91.99999999999999 L -7 -91.99999999999999 L -8 -91.99999999999999 L -10 -91.99999999999999 L -11 -91.99999999999999 L -13 -91.99999999999999 L -21 -91.99999999999999 L -27 -91.99999999999999 L -30 -91.99999999999999 z"
     fill="none"
     stroke="rgb(255,0,0)"
     stroke-width="0.001mm"
     id="path6"
     style="fill:#000000" />
</svg>
